<mxfile host="65bd71144e">
    <diagram id="cl9pHFJJxzllaQqiW4cm" name="PÃ¡gina-1">
        <mxGraphModel dx="163" dy="260" grid="1" gridSize="10" guides="1" tooltips="1" connect="1" arrows="1" fold="1" page="1" pageScale="1" pageWidth="827" pageHeight="1169" math="0" shadow="0">
            <root>
                <mxCell id="0"/>
                <mxCell id="1" parent="0"/>
                <mxCell id="7" value="Usuarios" style="whiteSpace=wrap;html=1;align=center;fillStyle=auto;strokeColor=#000000;fillColor=none;gradientColor=none;gradientDirection=south;" vertex="1" parent="1">
                    <mxGeometry x="320" y="60" width="100" height="20" as="geometry"/>
                </mxCell>
                <mxCell id="13" value="" style="ellipse;whiteSpace=wrap;html=1;aspect=fixed;fillStyle=auto;gradientDirection=south;strokeColor=#000000;fillColor=#000000;" vertex="1" parent="1">
                    <mxGeometry x="450" y="20" width="10" height="10" as="geometry"/>
                </mxCell>
                <mxCell id="17" value="" style="endArrow=none;html=1;rounded=0;exitX=1;exitY=0.25;exitDx=0;exitDy=0;entryX=0;entryY=0.5;entryDx=0;entryDy=0;strokeColor=#000000;" edge="1" parent="1" source="7" target="13">
                    <mxGeometry relative="1" as="geometry">
                        <mxPoint x="340" y="40" as="sourcePoint"/>
                        <mxPoint x="500" y="40" as="targetPoint"/>
                    </mxGeometry>
                </mxCell>
                <mxCell id="18" value="" style="ellipse;whiteSpace=wrap;html=1;aspect=fixed;fillStyle=auto;gradientDirection=south;strokeColor=#000000;fillColor=#000000;" vertex="1" parent="1">
                    <mxGeometry x="448.3" y="50" width="10" height="10" as="geometry"/>
                </mxCell>
                <mxCell id="19" value="" style="endArrow=none;html=1;rounded=0;exitX=1;exitY=0.25;exitDx=0;exitDy=0;entryX=0;entryY=0.5;entryDx=0;entryDy=0;strokeColor=#000000;" edge="1" parent="1" target="18" source="7">
                    <mxGeometry relative="1" as="geometry">
                        <mxPoint x="419.99999999999994" y="92.33999999999997" as="sourcePoint"/>
                        <mxPoint x="498.3" y="70" as="targetPoint"/>
                    </mxGeometry>
                </mxCell>
                <mxCell id="20" value="" style="ellipse;whiteSpace=wrap;html=1;aspect=fixed;fillStyle=auto;gradientDirection=south;strokeColor=#000000;fillColor=#000000;" vertex="1" parent="1">
                    <mxGeometry x="448.3" y="80" width="10" height="10" as="geometry"/>
                </mxCell>
                <mxCell id="21" value="" style="endArrow=none;html=1;rounded=0;exitX=1;exitY=0.25;exitDx=0;exitDy=0;entryX=0;entryY=0.5;entryDx=0;entryDy=0;strokeColor=#000000;" edge="1" parent="1" target="20" source="7">
                    <mxGeometry relative="1" as="geometry">
                        <mxPoint x="419.99999999999994" y="122.33999999999997" as="sourcePoint"/>
                        <mxPoint x="498.3" y="100" as="targetPoint"/>
                    </mxGeometry>
                </mxCell>
                <mxCell id="22" value="" style="ellipse;whiteSpace=wrap;html=1;aspect=fixed;fillStyle=auto;gradientDirection=south;strokeColor=#000000;fillColor=#000000;" vertex="1" parent="1">
                    <mxGeometry x="448.3" y="110" width="10" height="10" as="geometry"/>
                </mxCell>
                <mxCell id="23" value="" style="endArrow=none;html=1;rounded=0;exitX=1;exitY=0.25;exitDx=0;exitDy=0;entryX=0;entryY=0.5;entryDx=0;entryDy=0;strokeColor=#000000;" edge="1" parent="1" target="22" source="7">
                    <mxGeometry relative="1" as="geometry">
                        <mxPoint x="419.99999999999994" y="152.33999999999997" as="sourcePoint"/>
                        <mxPoint x="498.3" y="130" as="targetPoint"/>
                    </mxGeometry>
                </mxCell>
                <mxCell id="24" value="" style="ellipse;whiteSpace=wrap;html=1;aspect=fixed;fillStyle=auto;gradientDirection=south;strokeColor=#000000;fillColor=#000000;" vertex="1" parent="1">
                    <mxGeometry x="448.3" y="140" width="10" height="10" as="geometry"/>
                </mxCell>
                <mxCell id="25" value="" style="endArrow=none;html=1;rounded=0;exitX=1;exitY=0.25;exitDx=0;exitDy=0;entryX=0;entryY=0.5;entryDx=0;entryDy=0;strokeColor=#000000;" edge="1" parent="1" target="24" source="7">
                    <mxGeometry relative="1" as="geometry">
                        <mxPoint x="419.99999999999994" y="182.33999999999997" as="sourcePoint"/>
                        <mxPoint x="498.3" y="160" as="targetPoint"/>
                    </mxGeometry>
                </mxCell>
            </root>
        </mxGraphModel>
    </diagram>
</mxfile>